<svg version="1.1" xmlns="http://www.w3.org/2000/svg">
	<symbol id="facebook" viewBox="0 0 24 24" rel="img">
		<title>Facebook</title>
		<path d="M9 8h-3v4h3v12h5v-12h3.642l.358-4h-4v-1.667c0-.955.192-1.333 1.115-1.333h2.885v-5h-3.808c-3.596 0-5.192 1.583-5.192 4.615v3.385z"/>
	</symbol>
	<symbol id="twitter" viewBox="0 0 24 24" rel="img">
		<title>Twitter</title>
		<path d="M24 4.557c-.883.392-1.832.656-2.828.775 1.017-.609 1.798-1.574 2.165-2.724-.951.564-2.005.974-3.127 1.195-.897-.957-2.178-1.555-3.594-1.555-3.179 0-5.515 2.966-4.797 6.045-4.091-.205-7.719-2.165-10.148-5.144-1.29 2.213-.669 5.108 1.523 6.574-.806-.026-1.566-.247-2.229-.616-.054 2.281 1.581 4.415 3.949 4.89-.693.188-1.452.232-2.224.084.626 1.956 2.444 3.379 4.6 3.419-2.07 1.623-4.678 2.348-7.29 2.04 2.179 1.397 4.768 2.212 7.548 2.212 9.142 0 14.307-7.721 13.995-14.646.962-.695 1.797-1.562 2.457-2.549z"/>
	</symbol>
	<symbol id="linkedin" viewBox="0 0 24 24" rel="img">
		<title>LinkedIn</title>
		<path d="M4.98 3.5c0 1.381-1.11 2.5-2.48 2.5s-2.48-1.119-2.48-2.5c0-1.38 1.11-2.5 2.48-2.5s2.48 1.12 2.48 2.5zm.02 4.5h-5v16h5v-16zm7.982 0h-4.968v16h4.969v-8.399c0-4.67 6.029-5.052 6.029 0v8.399h4.988v-10.131c0-7.88-8.922-7.593-11.018-3.714v-2.155z"/>
	</symbol>
	<symbol id="youtube" viewBox="0 0 24 24" rel="img">
		<title>YouTube</title>
		<path d="M19.615 3.184c-3.604-.246-11.631-.245-15.23 0-3.897.266-4.356 2.62-4.385 8.816.029 6.185.484 8.549 4.385 8.816 3.6.245 11.626.246 15.23 0 3.897-.266 4.356-2.62 4.385-8.816-.029-6.185-.484-8.549-4.385-8.816zm-10.615 12.816v-8l8 3.993-8 4.007z"/>
	</symbol>
	<symbol id="instagram" viewBox="0 0 24 24" rel="img">
		<title>Instagram</title>
		<path d="M12 2.163c3.204 0 3.584.012 4.85.07 3.252.148 4.771 1.691 4.919 4.919.058 1.265.069 1.645.069 4.849 0 3.205-.012 3.584-.069 4.849-.149 3.225-1.664 4.771-4.919 4.919-1.266.058-1.644.07-4.85.07-3.204 0-3.584-.012-4.849-.07-3.26-.149-4.771-1.699-4.919-4.92-.058-1.265-.07-1.644-.07-4.849 0-3.204.013-3.583.07-4.849.149-3.227 1.664-4.771 4.919-4.919 1.266-.057 1.645-.069 4.849-.069zm0-2.163c-3.259 0-3.667.014-4.947.072-4.358.2-6.78 2.618-6.98 6.98-.059 1.281-.073 1.689-.073 4.948 0 3.259.014 3.668.072 4.948.2 4.358 2.618 6.78 6.98 6.98 1.281.058 1.689.072 4.948.072 3.259 0 3.668-.014 4.948-.072 4.354-.2 6.782-2.618 6.979-6.98.059-1.28.073-1.689.073-4.948 0-3.259-.014-3.667-.072-4.947-.196-4.354-2.617-6.78-6.979-6.98-1.281-.059-1.69-.073-4.949-.073zm0 5.838c-3.403 0-6.162 2.759-6.162 6.162s2.759 6.163 6.162 6.163 6.162-2.759 6.162-6.163c0-3.403-2.759-6.162-6.162-6.162zm0 10.162c-2.209 0-4-1.79-4-4 0-2.209 1.791-4 4-4s4 1.791 4 4c0 2.21-1.791 4-4 4zm6.406-11.845c-.796 0-1.441.645-1.441 1.44s.645 1.44 1.441 1.44c.795 0 1.439-.645 1.439-1.44s-.644-1.44-1.439-1.44z"/>
	</symbol>
	<symbol id="soundcloud" viewBox="0 0 24 24" rel="img">
		<title>SoundCloud</title>
		<path d="M7 17.939h-1v-8.068c.308-.231.639-.429 1-.566v8.634zm3 0h1v-9.224c-.229.265-.443.548-.621.857l-.379-.184v8.551zm-2 0h1v-8.848c-.508-.079-.623-.05-1-.01v8.858zm-4 0h1v-7.02c-.312.458-.555.971-.692 1.535l-.308-.182v5.667zm-3-5.25c-.606.547-1 1.354-1 2.268 0 .914.394 1.721 1 2.268v-4.536zm18.879-.671c-.204-2.837-2.404-5.079-5.117-5.079-1.022 0-1.964.328-2.762.877v10.123h9.089c1.607 0 2.911-1.393 2.911-3.106 0-2.233-2.168-3.772-4.121-2.815zm-16.879-.027c-.302-.024-.526-.03-1 .122v5.689c.446.143.636.138 1 .138v-5.949z"/>
	</symbol>
	<symbol id="phone" viewBox="0 0 24 24" rel="img">
		<title>Phone</title>
		<path d="M20 22.621l-3.521-6.795c-.008.004-1.974.97-2.064 1.011-2.24 1.086-6.799-7.82-4.609-8.994l2.083-1.026-3.493-6.817-2.106 1.039c-7.202 3.755 4.233 25.982 11.6 22.615.121-.055 2.102-1.029 2.11-1.033z"/>
	</symbol>
	<symbol id="mobile" viewBox="0 0 24 24" rel="img">
		<title>Phone</title>
		<path d="M17.5 2c.276 0 .5.224.5.5v19c0 .276-.224.5-.5.5h-11c-.276 0-.5-.224-.5-.5v-19c0-.276.224-.5.5-.5h11zm2.5 0c0-1.104-.896-2-2-2h-12c-1.104 0-2 .896-2 2v20c0 1.104.896 2 2 2h12c1.104 0 2-.896 2-2v-20zm-9.5 1h3c.276 0 .5.224.5.501 0 .275-.224.499-.5.499h-3c-.275 0-.5-.224-.5-.499 0-.277.225-.501.5-.501zm1.5 18c-.553 0-1-.448-1-1s.447-1 1-1c.552 0 .999.448.999 1s-.447 1-.999 1zm5-3h-10v-13h10v13z"/>
	</symbol>
	<symbol id="mail" viewBox="0 0 24 24" rel="img">
		<title>Mail</title>
		<path d="M0 3v18h24v-18h-24zm21.518 2l-9.518 7.713-9.518-7.713h19.036zm-19.518 14v-11.817l10 8.104 10-8.104v11.817h-20z"/>
	</symbol>
	<symbol id="message" viewBox="0 0 24 24" rel="img">
		<title>Message</title>
		<path d="M24 1h-24v16.981h4v5.019l7-5.019h13z"/>
	</symbol>
	<symbol id="arrow-up" viewBox="0 0 24 24" rel="img">
		<title>Arrow Up</title>
		<path d="M0 16.67l2.829 2.83 9.175-9.339 9.167 9.339 2.829-2.83-11.996-12.17z"/>
	</symbol>
	<symbol id="arrow-right" viewBox="0 0 24 24" rel="img">
		<title>Arrow Right</title>
		<path d="M7.33 24l-2.83-2.829 9.339-9.175-9.339-9.167 2.83-2.829 12.17 11.996z"/>
	</symbol>
	<symbol id="arrow-down" viewBox="0 0 24 24" rel="img">
		<title>Arrow Down</title>
		<path d="M0 7.33l2.829-2.83 9.175 9.339 9.167-9.339 2.829 2.83-11.996 12.17z"/>
	</symbol>
	<symbol id="arrow-left" viewBox="0 0 24 24" rel="img">
		<title>Arrow Left</title>
		<path d="M16.67 0l2.83 2.829-9.339 9.175 9.339 9.167-2.83 2.829-12.17-11.996z"/>
	</symbol>
	<symbol id="check" viewBox="0 0 24 24" rel="img">
		<title>Checkmark</title>
		<path d="M9 21.035l-9-8.638 2.791-2.87 6.156 5.874 12.21-12.436 2.843 2.817z"/>
	</symbol>
	<symbol id="close" viewBox="0 0 24 24" rel="img">
		<title>Close</title>
		<path d="M23.954 21.03l-9.184-9.095 9.092-9.174-2.832-2.807-9.09 9.179-9.176-9.088-2.81 2.81 9.186 9.105-9.095 9.184 2.81 2.81 9.112-9.192 9.18 9.1z"/>
	</symbol>
	<symbol id="download" viewBox="0 0 24 24" rel="img">
		<title>Download</title>
		<path d="M16 11h5l-9 10-9-10h5v-11h8v11zm1 11h-10v2h10v-2z"/>
	</symbol>
</svg>